# xmcd
#
# Track frame offsets: 
#        150
#        15807
#        32682
#        43065
#        49247
#        63192
#        71780
#        88277
#        101430
#        108867
#        123225
#        144422
#
# Disc length: 2126 seconds
#
# Revision: 0
# Processed by: cddbd v1.4PL0 Copyright (c) Steve Scherf et al.
# Submitted via: ExactAudioCopy v0.90b4
#
DISCID=9a084c0c
DTITLE=Honey B. And The T-Bones - On The Loose
DYEAR=1900
DGENRE=Blues
TTITLE0=Shadowman
TTITLE1=Jelly Roll
TTITLE2=Poison Train
TTITLE3=Chili
TTITLE4=Poor Boy
TTITLE5=Laika
TTITLE6=Mighty Vision
TTITLE7=The Poodle
TTITLE8=Trick or Treat
TTITLE9=Dirty Boogie
TTITLE10=Hold the Wind
TTITLE11=Dirty Boogie (Live version)
EXTD=
EXTT0=
EXTT1=
EXTT2=
EXTT3=
EXTT4=
EXTT5=
EXTT6=
EXTT7=
EXTT8=
EXTT9=
EXTT10=
EXTT11=
PLAYORDER=
